<svg width="15" height="15" viewBox="0 0 15 15" fill="none" xmlns="http://www.w3.org/2000/svg">
                    <path d="M7.5 15C11.6421 15 15 11.6421 15 7.5C15 3.35786 11.6421 0 7.5 0C3.35786 0 0 3.35786 0 7.5C0 11.6421 3.35786 15 7.5 15Z" fill="#2961DB"/>
                    <g opacity="0.2">
                    <path d="M11.25 7.5C11.25 5.97656 10.3594 4.6875 9.04687 4.10156C8.64844 3.91406 8.4375 4.21875 8.4375 4.47656V6.46875C8.4375 6.65625 8.60156 6.79687 8.78906 6.79687H9.51562C9.86719 6.79687 9.96094 7.05468 9.72656 7.35937L7.92187 9.65625C7.6875 9.9375 7.3125 9.9375 7.10156 9.65625L5.29688 7.35937C5.0625 7.07812 5.15625 6.79687 5.50781 6.79687H6.23438C6.42188 6.79687 6.58594 6.65625 6.58594 6.46875V4.47656C6.58594 4.21875 6.23437 3.98437 5.92969 4.10156C4.92187 4.57031 4.14844 5.48437 3.89063 6.58594C2.74219 6.77344 1.875 7.73437 1.875 8.90625C1.875 10.1953 2.92969 11.25 4.21875 11.25H11.25C12.2813 11.25 13.125 10.4062 13.125 9.375C13.125 8.34375 12.2813 7.5 11.25 7.5Z" fill="#231F20"/>
                    </g>
                    <path d="M11.25 7.03125C11.25 5.50781 10.3594 4.21875 9.04687 3.63281C8.64844 3.44531 8.4375 3.75 8.4375 4.00781V6C8.4375 6.1875 8.60156 6.32812 8.78906 6.32812H9.51562C9.86719 6.32812 9.96094 6.58593 9.72656 6.89062L7.92187 9.1875C7.6875 9.46875 7.3125 9.46875 7.10156 9.1875L5.29688 6.89062C5.0625 6.60937 5.15625 6.32812 5.50781 6.32812H6.23438C6.42188 6.32812 6.58594 6.1875 6.58594 6V4.00781C6.58594 3.75 6.23437 3.51562 5.92969 3.63281C4.92187 4.10156 4.14844 5.01562 3.89063 6.11719C2.74219 6.30469 1.875 7.26562 1.875 8.4375C1.875 9.72656 2.92969 10.7812 4.21875 10.7812H11.25C12.2813 10.7812 13.125 9.9375 13.125 8.90625C13.125 7.875 12.2813 7.03125 11.25 7.03125Z" fill="white"/>
                    </svg>