<svg width="15" height="15" viewBox="0 0 15 15" fill="none" xmlns="http://www.w3.org/2000/svg">
                    <path d="M7.50001 15C11.6422 15 15 11.6421 15 7.50001C15 3.35787 11.6422 0 7.50001 0C3.35788 0 0 3.35787 0 7.50001C0 11.6421 3.35788 15 7.50001 15Z" fill="#38CD4C"/>
                    <path fill-rule="evenodd" clip-rule="evenodd" d="M9.77775 2.42154C9.62819 2.48069 9.54379 2.61531 9.36452 3.08078C9.27523 3.31266 9.20006 3.50541 9.19753 3.50914C9.19496 3.51286 9.07699 3.47321 8.93533 3.42104C8.12363 3.12211 7.24995 3.02643 6.4101 3.14447C5.118 3.32606 4.1197 4.11604 3.51871 5.43231C3.3277 5.85063 3.16576 6.31613 3.0605 6.74906C3.03318 6.8615 3.00619 6.97249 3.00052 6.99578C2.99484 7.01908 3.03672 6.96152 3.09355 6.86786C3.3706 6.4112 3.71827 6 4.03662 5.75246C4.2517 5.58517 4.66493 5.34787 4.92408 5.2427C5.50963 5.0051 6.21375 4.96162 7.0272 5.11284C7.52201 5.20475 8.35928 5.47593 8.35928 5.54417C8.35928 5.5548 8.28028 5.76182 8.18375 6.00428C7.99444 6.47957 7.96867 6.59333 8.01191 6.76294C8.02662 6.82049 8.05918 6.88018 8.09266 6.91115C8.23 7.03795 8.52739 7.06232 8.85943 6.97409C8.96998 6.94473 9.59091 6.78264 10.2393 6.614C10.9378 6.43226 11.4592 6.28604 11.5188 6.25512C11.6343 6.19534 11.7649 6.07328 11.8054 5.98748C11.8411 5.91168 11.8409 5.72038 11.8049 5.6041C11.7752 5.50811 10.309 2.61933 10.2596 2.55939C10.2129 2.50282 10.0355 2.41535 9.94183 2.40272C9.8885 2.39554 9.82517 2.4028 9.77775 2.42154ZM11.9681 8.42512C11.9303 8.52524 11.6861 8.92172 11.5482 9.10696C11.0709 9.74765 10.3344 10.2228 9.51492 10.4188C9.33594 10.4616 9.26111 10.4667 8.81284 10.4671C8.29261 10.4675 8.14935 10.4526 7.67439 10.3487C7.33264 10.274 6.7022 10.0662 6.68725 10.0234C6.68288 10.0109 6.75451 9.80098 6.84638 9.55688C6.99498 9.16204 7.01361 9.09784 7.01516 8.9754C7.01638 8.87601 7.00522 8.80967 6.97479 8.73639C6.91772 8.59891 6.81517 8.54742 6.57408 8.53509L6.40025 8.52621L5.01085 8.9308C4.24666 9.15331 3.57612 9.35893 3.52075 9.3877C3.40224 9.44934 3.27442 9.57032 3.23108 9.66194C3.19318 9.74202 3.19065 9.94031 3.22632 10.037C3.25185 10.1062 4.79169 12.9806 4.83338 13.0369C4.84488 13.0525 4.90685 13.0948 4.9712 13.131C5.1295 13.2201 5.2632 13.2228 5.39278 13.1396C5.51541 13.0607 5.5585 12.9829 5.70671 12.573C5.77587 12.3818 5.84614 12.1906 5.86283 12.148L5.89321 12.0707L6.03104 12.1224C6.98386 12.48 8.18341 12.5369 9.10581 12.2682C10.4196 11.8855 11.3285 10.8481 11.8223 9.16791C11.9488 8.73721 12.0556 8.19349 11.9681 8.42512Z" fill="#2CAB3D"/>
                    <path fill-rule="evenodd" clip-rule="evenodd" d="M9.77775 1.82157C9.62819 1.88072 9.54379 2.01533 9.36452 2.48081C9.27523 2.71269 9.20006 2.90544 9.19753 2.90917C9.19496 2.91289 9.07699 2.87324 8.93533 2.82107C8.12363 2.52214 7.24995 2.42646 6.4101 2.54449C5.118 2.72609 4.1197 3.51605 3.51871 4.83236C3.3277 5.25068 3.16576 5.71617 3.0605 6.14911C3.03318 6.2615 3.00619 6.37254 3.00052 6.39583C2.99484 6.41912 3.03672 6.36157 3.09355 6.26791C3.3706 5.81119 3.71827 5.40005 4.03662 5.1525C4.2517 4.98522 4.66493 4.74787 4.92408 4.6427C5.50963 4.40515 6.21375 4.36167 7.0272 4.51284C7.52201 4.6048 8.35928 4.87593 8.35928 4.94422C8.35928 4.95479 8.28028 5.16187 8.18375 5.40428C7.99444 5.87957 7.96867 5.99337 8.01191 6.16294C8.02662 6.22049 8.05918 6.28023 8.09266 6.31119C8.23 6.43795 8.52739 6.46236 8.85943 6.37409C8.96998 6.34473 9.59091 6.18269 10.2393 6.014C10.9378 5.83231 11.4592 5.68609 11.5188 5.65517C11.6343 5.59538 11.7649 5.47328 11.8054 5.38748C11.8411 5.31168 11.8409 5.12038 11.8049 5.00415C11.7752 4.90811 10.309 2.01936 10.2596 1.95942C10.2129 1.90285 10.0355 1.81538 9.94183 1.80274C9.8885 1.79556 9.82517 1.80283 9.77775 1.82157ZM11.9681 7.82517C11.9303 7.92529 11.6861 8.32177 11.5482 8.50696C11.0709 9.14769 10.3344 9.62285 9.51492 9.81876C9.33594 9.86156 9.26111 9.86671 8.81284 9.8671C8.29261 9.86758 8.14935 9.85268 7.67439 9.74878C7.33264 9.674 6.7022 9.46619 6.68725 9.42339C6.68288 9.41092 6.75451 9.20103 6.84638 8.95688C6.99498 8.56209 7.01361 8.49784 7.01516 8.37544C7.01638 8.27601 7.00522 8.20967 6.97479 8.13644C6.91772 7.99895 6.81517 7.94746 6.57408 7.93514L6.40025 7.92621L5.01085 8.3308C4.24666 8.55331 3.57612 8.75897 3.52075 8.78775C3.40224 8.84934 3.27442 8.97032 3.23108 9.06194C3.19318 9.14207 3.19065 9.34036 3.22632 9.43703C3.25185 9.50623 4.79169 12.3806 4.83338 12.437C4.84488 12.4525 4.90685 12.4948 4.9712 12.531C5.1295 12.6202 5.2632 12.6229 5.39278 12.5396C5.51541 12.4608 5.5585 12.383 5.70671 11.9731C5.77587 11.7819 5.84614 11.5906 5.86283 11.548L5.89321 11.4707L6.03104 11.5224C6.98386 11.88 8.18341 11.9369 9.10581 11.6682C10.4196 11.2855 11.3285 10.2482 11.8223 8.56796C11.9488 8.13721 12.0556 7.59349 11.9681 7.82517Z" fill="white"/>
                    </svg>